<?xml version="1.0"?>
<svg xmlns="http://www.w3.org/2000/svg" width="512" height="512" viewBox="0 0 512 512"><g><path d="M88,64A71.946,71.946,0,0,0,36.47,186.21a7.729,7.729,0,0,0,1.32,1.32A71.978,71.978,0,1,0,88,64Zm8,16.58A56.11,56.11,0,0,1,143.42,128H96ZM32,136A56.086,56.086,0,0,1,80,80.58v52.11L43.17,169.52A55.708,55.708,0,0,1,32,136Zm56,56a55.708,55.708,0,0,1-33.52-11.17L91.31,144h52.11A56.086,56.086,0,0,1,88,192Z"/><path d="M376,264a95.954,95.954,0,0,0-80.13,148.81L264,444.69V296a8,8,0,0,0-8-8H235.31l40-40H352a8,8,0,0,0,0-16H272a8.008,8.008,0,0,0-5.66,2.34L212.69,288H16a8,8,0,0,0-8,8V496a8,8,0,0,0,8,8H256a8,8,0,0,0,8-8V467.31l41.85-41.85A95.978,95.978,0,1,0,376,264ZM248,463.99V488H24V304H248ZM376,440a80,80,0,1,1,80-80A80.093,80.093,0,0,1,376,440Z"/><path d="M376,288a72,72,0,1,0,72,72A72.083,72.083,0,0,0,376,288Zm0,128a56,56,0,1,1,56-56A56.062,56.062,0,0,1,376,416Z"/><path d="M400,360v24a8,8,0,0,1-8,8h-8a8,8,0,0,1-16,0h-8a8,8,0,0,1,0-16h24v-8H360a8,8,0,0,1-8-8V336a8,8,0,0,1,8-8h8a8,8,0,0,1,16,0h8a8,8,0,0,1,0,16H368v8h24A8,8,0,0,1,400,360Z"/><path d="M320,200h32a8,8,0,0,0,8-8V32a8,8,0,0,0-8-8H320a8,8,0,0,0-8,8V192A8,8,0,0,0,320,200Zm8-160h16V184H328Z"/><path d="M376,200h32a8,8,0,0,0,8-8V112a8,8,0,0,0-8-8H376a8,8,0,0,0-8,8v80A8,8,0,0,0,376,200Zm8-80h16v64H384Z"/><path d="M432,200h32a8,8,0,0,0,8-8V80a8,8,0,0,0-8-8H432a8,8,0,0,0-8,8V192A8,8,0,0,0,432,200Zm8-112h16v96H440Z"/><path d="M208,200h32a8,8,0,0,0,8-8V112a8,8,0,0,0-8-8H208a8,8,0,0,0-8,8v80A8,8,0,0,0,208,200Zm8-80h16v64H216Z"/><path d="M264,200h32a8,8,0,0,0,8-8V80a8,8,0,0,0-8-8H264a8,8,0,0,0-8,8V192A8,8,0,0,0,264,200Zm8-112h16v96H272Z"/><path d="M184,224H496a8,8,0,0,0,0-16H192V16a8,8,0,0,0-16,0V216A8,8,0,0,0,184,224Z"/><path d="M232,320H40a8,8,0,0,0-8,8v40a8,8,0,0,0,8,8H232a8,8,0,0,0,8-8V328A8,8,0,0,0,232,320Zm-8,40H48V336H224Z"/><path d="M232,384H40a8,8,0,0,0,0,16H232a8,8,0,0,0,0-16Z"/><path d="M232,408H40a8,8,0,0,0,0,16H232a8,8,0,0,0,0-16Z"/><path d="M232,432H40a8,8,0,0,0,0,16H232a8,8,0,0,0,0-16Z"/><path d="M120,456H40a8,8,0,0,0,0,16h80a8,8,0,0,0,0-16Z"/><path d="M152,456h-8a8,8,0,0,0,0,16h8a8,8,0,0,0,0-16Z"/><path d="M376,232a8,8,0,0,0,0,16h8a8,8,0,0,0,0-16Z"/><path d="M120,216H40a8,8,0,0,0,0,16h76.687l37.656,37.657a8,8,0,1,0,11.314-11.314l-40-40A8,8,0,0,0,120,216Z"/><path d="M16,48H56a8,8,0,0,0,8-8V16a8,8,0,0,0-8-8H16a8,8,0,0,0-8,8V40A8,8,0,0,0,16,48Zm8-24H48v8H24Z"/><path d="M80,24h72a8,8,0,0,0,0-16H80a8,8,0,0,0,0,16Z"/><path d="M80,48h24a8,8,0,0,0,0-16H80a8,8,0,0,0,0,16Z"/><path d="M496,464H456a8,8,0,0,0-8,8v24a8,8,0,0,0,8,8h40a8,8,0,0,0,8-8V472A8,8,0,0,0,496,464Zm-8,24H464v-8h24Z"/><path d="M432,488H360a8,8,0,0,0,0,16h72a8,8,0,0,0,0-16Z"/><path d="M432,464H408a8,8,0,0,0,0,16h24a8,8,0,0,0,0-16Z"/></g></svg>
