<svg id="Layer_1_1_" enable-background="new 0 0 64 64" height="512" viewBox="0 0 64 64" width="512" xmlns="http://www.w3.org/2000/svg"><path d="m61 12h-51v-1c0-.552-.448-1-1-1h-2c-2.757 0-5 2.243-5 5v35c0 2.206 1.794 4 4 4h30v7c0 .552.448 1 1 1h16c.552 0 1-.448 1-1v-7h7c.552 0 1-.448 1-1v-40c0-.552-.448-1-1-1zm-57 3c0-1.654 1.346-3 3-3h1v34h-2c-.728 0-1.411.195-2 .537zm42 45h-2v-4h2zm6 0h-4v-5c0-.552-.448-1-1-1h-4c-.552 0-1 .448-1 1v5h-4v-8.446l7-4.375 7 4.375zm8-8h-6v-1c0-.345-.178-.665-.47-.848l-8-5c-.324-.202-.735-.202-1.06 0l-8 5c-.292.183-.47.503-.47.848v1h-30c-1.103 0-2-.897-2-2s.897-2 2-2h3c.552 0 1-.448 1-1v-33h50z"/><path d="m50 42v1.903l-4.476-2.755c-.321-.198-.727-.198-1.048 0l-13 8 1.048 1.703 12.476-7.677 12.476 7.677 1.048-1.703-6.524-4.014v-3.134z"/><path d="m13 8h40c.197 0 .391-.059.555-.168l3-2c.278-.186.445-.498.445-.832s-.167-.646-.445-.832l-3-2c-.164-.109-.358-.168-.555-.168h-40-3c-1.654 0-3 1.346-3 3s1.346 3 3 3zm1-4h38.697l1.5 1-1.5 1h-38.697zm-5 1c0-.551.449-1 1-1h2v2h-2c-.551 0-1-.449-1-1z"/><path d="m13 44h25v-2h-12v-7h12v-2h-12v-8h-2v9 8h-10v-24h10v3h2v-3h22v15h-6v2h6v5h2v-23c0-.552-.448-1-1-1h-36c-.552 0-1 .448-1 1v26c0 .552.448 1 1 1z"/></svg>