<svg id="Capa_1" enable-background="new 0 0 512 512" height="512" viewBox="0 0 512 512" width="512" xmlns="http://www.w3.org/2000/svg"><g><g><path d="m88.972 400.263h-.057c-5.523 0-9.972 4.477-9.972 10s4.505 10 10.028 10 10-4.477 10-10-4.476-10-9.999-10z"/><path d="m502 393.573h-26.226v-89.355-99.355c0-5.523-4.477-10-10-10h-89.353v-115.378c0-17.472-14.214-31.686-31.685-31.686-17.486 0-31.713 14.214-31.713 31.686v206.779c-8.414.204-16.423.675-24.05 1.405v-47.969c0-13.179-8.18-24.477-19.725-29.103-.106-.421-.23-.841-.395-1.256l-38.143-96.215h7.076c5.523 0 10-4.477 10-10v-43.512c0-5.523-4.477-10-10-10h-68.994c-5.523 0-10 4.477-10 10s4.477 10 10 10h58.994v23.512h-207.786v-23.512h52.134c5.523 0 10-4.477 10-10s-4.477-10-10-10h-62.134c-5.523 0-10 4.477-10 10v43.512c0 5.523 4.477 10 10 10h11.6v165.869h-.176c-11.814.001-21.424 9.611-21.424 21.424v91.729c0 11.813 9.61 21.424 21.423 21.424h14.065c1.717 28.001 25.03 50.259 53.456 50.259s51.739-22.258 53.456-50.259h47.745c1.533 28.175 24.933 50.627 53.483 50.627s51.951-22.452 53.484-50.627h204.888c5.523 0 10-4.477 10-10s-4.477-9.999-10-9.999zm-255.714-97.873v-55.999c0-6.256 5.089-11.345 11.344-11.345s11.344 5.089 11.344 11.345v50.641c-8.087 1.42-15.645 3.207-22.688 5.358zm-37.089-182.574 38.408 96.883c-8.687 2.942-15.674 9.59-19.071 18.058l-31.067-19.176 4.582-7.421c2.901-4.699 1.444-10.861-3.255-13.762-4.7-2.902-10.861-1.444-13.762 3.255l-9.836 15.931v.001l-9.835 15.93c-2.901 4.699-1.444 10.861 3.255 13.762 1.637 1.011 3.452 1.493 5.244 1.493 3.353 0 6.627-1.686 8.518-4.748l4.583-7.423 39.326 24.275v53.275c-12.385 6.001-22.617 13.573-30.755 22.762h-34.067l-15.012-39.08v-40.835c0-5.523-4.477-10-10-10h-52.164v-49.103c0-17.299-14.061-31.374-31.345-31.374-4 0-7.824.762-11.344 2.135v-44.838zm-167.597 74.077c0-6.271 5.089-11.374 11.344-11.374s11.345 5.102 11.345 11.374v59.103c0 5.523 4.477 10 10 10h52.163v22.69h-84.852zm47.343 256.629c-18.509 0-33.568-15.059-33.568-33.569s15.059-33.569 33.568-33.569 33.568 15.059 33.568 33.569-15.058 33.569-33.568 33.569zm154.684.368c-18.509 0-33.567-15.059-33.567-33.569s15.058-33.569 33.567-33.569 33.568 15.059 33.568 33.569-15.059 33.569-33.568 33.569zm69.397-50.627h-18.63c-7.142-21.197-27.193-36.51-50.767-36.51s-43.625 15.313-50.766 36.51h-53.025c-7.032-21.388-27.181-36.879-50.892-36.879s-43.86 15.491-50.892 36.879h-16.629c-.758 0-1.423-.666-1.423-1.424v-48.961h23.533c5.523 0 10-4.477 10-10s-4.477-10-10-10h-23.533v-22.769c0-.772.652-1.424 1.423-1.424h108.157l15.677 40.812c1.484 3.864 5.196 6.414 9.335 6.414h45.609c3.065 0 5.961-1.406 7.857-3.814 7.524-9.556 17.878-17.182 31.169-22.933.662-.203 1.293-.475 1.889-.804 18.419-7.566 42.279-11.67 71.908-12.409zm43.397 0h-23.397v-97.434-216.654c0-6.443 5.254-11.686 11.713-11.686 6.443 0 11.685 5.242 11.685 11.686v314.088zm99.353 0h-79.353v-79.355h29.662v17.751c0 5.523 4.477 10 10 10s10-4.477 10-10v-17.751h29.69v79.355zm0-99.355h-79.353v-79.355h29.662v17.751c0 5.523 4.477 10 10 10s10-4.477 10-10v-17.751h29.69v79.355z"/></g><g><path d="m243.627 420.631c-5.523 0-10.014-4.477-10.014-10s4.463-10 9.986-10h.028c5.523 0 10 4.477 10 10s-4.477 10-10 10z"/></g><g><path d="m123.951 69.614h-.057c-5.523 0-10-4.477-10-10s4.477-10 10-10 10.028 4.477 10.028 10-4.448 10-9.971 10z"/></g></g></svg>