<svg id="Outline" enable-background="new 0 0 512 512" height="512" viewBox="0 0 512 512" width="512" xmlns="http://www.w3.org/2000/svg"><g><path d="m488 336h-120v-72c0-2.121582-.8427734-4.1567383-2.3427734-5.6567383l-64-64c-3.125-3.1240234-8.1894531-3.1240234-11.3144531 0l-34.3427735 34.3427735-34.3427734-34.3427734c-3.125-3.1240234-8.1894531-3.1240234-11.3144531 0l-18.4404297 18.4404907c-1.0297852-17.6552124-10.4707031-33.7731934-24.9335938-43.4307251 5.7802734-7.0405274 9.03125-15.9262696 9.03125-25.3530274 0-5.9122925-1.2875977-11.6589966-3.753418-16.9321899l33.4106445-33.4110718c3.1240234-3.1240234 3.1240234-8.1894531 0-11.3134766l-64-64c-1.5009765-1.5004883-3.5351562-2.3432617-5.6572265-2.3432617h-112c-4.4179688 0-8 3.581543-8 8v72c0 4.418457 3.5820313 8 8 8h36.6865234l35.583252 35.5837402c-.1611328 1.4625244-.2697754 2.9335327-.2697754 4.4162598 0 9.4267578 3.2509766 18.3125 9.03125 25.3530273-15.3369141 10.241211-25.03125 27.7465821-25.03125 46.6469727 0 21.7548828 12.6455078 41.4262695 32 50.6113281v21.3886719c0 4.418457 3.5820313 8 8 8h24v40h-40-80c-4.4179688 0-8 3.581543-8 8v32c0 4.418457 3.5820313 8 8 8h80 72v40c0 2.121582.8427734 4.1567383 2.3427734 5.6567383l64 64c1.5009766 1.5004883 3.5351563 2.3432617 5.6572266 2.3432617h112c4.4179688 0 8-3.581543 8-8v-64c0-4.418457-3.5820313-8-8-8h-28.6865234l-31.9995117-32h188.6860351c4.4179688 0 8-3.581543 8-8v-32c0-4.418457-3.5820312-8-8-8zm-392 32h-64v-16h64zm200-156.6865234 56 56v68.6865234h-24v-72c0-4.418457-3.5820313-8-8-8h-48c-4.4179688 0-8 3.581543-8 8v72h-24v-68.6865234zm16 124.6865234h-32v-64h32zm-96-124.6860352 28.6860352 28.6860352-16 16h-57.3725586zm-152-123.3139648h-32v-56h100.6865234l56 56-26.1152344 26.1153564c-3.7497559-3.3266602-8.1040039-5.9451294-12.8154297-7.6731567l-2.4423827-2.4421997 10.34375-10.3432617c3.1240234-3.1240234 3.1240234-8.1894531 0-11.3134766l-24-24c-3.125-3.1240234-8.1894531-3.1240234-11.3144531 0l-24 24c-3.1240234 3.1240234-3.1240234 8.1894531 0 11.3134766l16.4372559 16.4373169c-5.138916 3.211792-9.4760742 7.5484619-12.6870117 12.6850586l-32.435791-32.4358521c-1.5009767-1.5004883-3.5351564-2.3432617-5.6572267-2.3432617zm66.3427734 10.3432617c-.8349609.8354492-1.4472656 1.8105469-1.8359375 2.8496094l-13.1933593-13.1928711 12.6865234-12.6865234 12.6865234 12.6865234zm-2.3427734 181.6567383v-18.7299805c0-3.3901367-2.1367188-6.4125977-5.3330078-7.5424805-15.9501953-5.6391601-26.6669922-20.8007812-26.6669922-37.727539 0-16.5263672 10.3740234-31.5600586 25.8144531-37.4086914 2.8378906-1.0751953 4.8232422-3.6630859 5.1259766-6.6826172.3027344-3.019043-1.1279297-5.9501953-3.6953125-7.5673828-7.0410156-4.4360352-11.2451172-12.0400391-11.2451172-20.3413086 0-2.4121094.3544922-4.7841797 1.0576172-7.0629883 2.3349609-7.6079102 8.2714844-13.5439453 15.8916016-15.8828125 4.5332031-1.3994141 9.5585938-1.402832 14.1113281.003418 5.0957031 1.5654297 9.5917969 4.8476563 12.6503906 9.2280273 2.8056641 4.0375977 4.2890625 8.7797852 4.2890625 13.7143555 0 8.3012695-4.2041016 15.9052734-11.2451172 20.3413086-2.5673828 1.6171875-3.9980469 4.5483398-3.6953125 7.5673828.3027344 3.0195313 2.2880859 5.6074219 5.1259766 6.6826172 15.4404297 5.8486328 25.8144531 20.8823242 25.8144531 37.4086914 0 5.607605-1.145752 11.0024414-3.3781738 16.0641479l-26.2790527 26.2791138c-1.5297852 1.5298462-2.322998 3.5756836-2.3234863 5.6567383h-.0192872v16zm32-8h64v64h-64zm168 160h24v48h-100.6865234l-59.3134766-59.3139648v-36.6860352h16v24c0 2.121582.8427734 4.1567383 2.3427734 5.6567383l40 40c3.125 3.1240234 8.1894531 3.1240234 11.3144531 0l24-24c3.1240234-3.1240234 3.1240234-8.1894531 0-11.3134766l-18.3437499-18.3432617 12.6865234-12.6860352 42.3427734 42.3427734c1.5009766 1.5004884 3.5351563 2.3432618 5.6572266 2.3432618zm-77.6572266-26.3432617 18.34375 18.3432617-12.6865234 12.6860352-32-32v-20.6860352h36.6860352l-10.3432617 10.3432617c-3.1240235 3.1240235-3.1240235 8.1894531-.0000001 11.3134766zm229.6572266-37.6567383h-368v-16h368z"/><path d="m488 16h-112c-2.1220703 0-4.15625.8427734-5.6572266 2.3432617l-48 48c-1.5 1.5-2.3427734 3.5351563-2.3427734 5.6567383v40h-8c-2.1220703 0-4.15625.8427734-5.6572266 2.3432617l-64 64c-2.2880859 2.2880859-2.9716797 5.7290039-1.7333984 8.7182617s4.1552734 4.9384766 7.390625 4.9384766h80c2.1220703 0 4.15625-.8427734 5.6572266-2.3432617l58.3427734-58.3427735 58.3427734 58.3427734 11.3144531-11.3134766-42.3432617-42.3433228 31.9995118-31.9999388h36.6865234c4.4179688 0 8-3.581543 8-8v-72c0-4.418457-3.5820312-8-8-8zm-163.3134766 160h-57.3730469l48-48h57.3730469zm53.65625-69.6567383c-1.5 1.5-2.3427734 3.5351563-2.3427734 5.6567383h-8v-20.6865234l16-16 12.6865234 12.6865234zm101.6572266-18.3432617h-32c-2.1220703 0-4.15625.8427734-5.6572266 2.3432617l-34.3427734 34.3427735-10.3427734-10.3427734-.0136719.013916c-.8095703-.809082-1.7802734-1.4320679-2.8540039-1.833252l18.8676758-18.8671875c3.1240234-3.1240234 3.1240234-8.1894531 0-11.3134766l-24-24c-3.125-3.1240234-8.1894531-3.1240234-11.3144531 0l-24 24c-1.5000001 1.5-2.3427735 3.5351563-2.3427735 5.6567383v24h-16v-36.6860352l43.3134766-43.3139648h100.6865234z"/></g></svg>