<?xml version="1.0" encoding="UTF-8"?>
<svg xmlns="http://www.w3.org/2000/svg" id="Layer_3" data-name="Layer 3" viewBox="0 0 64 64" width="512" height="512"><path d="M34,21A13,13,0,1,0,47,34,13.015,13.015,0,0,0,34,21Zm2.658,2.338a17.074,17.074,0,0,1-13.32,13.32,10.617,10.617,0,0,1-.144-4.678A5,5,0,0,0,28,27h0l2,1.5V31h2V28a1,1,0,0,0-.4-.8l-3.385-2.538a10.814,10.814,0,0,1,8.443-1.324ZM26,26.474V27a3,3,0,0,1-2.19,2.875A11.007,11.007,0,0,1,26,26.474ZM34,45a11.007,11.007,0,0,1-10-6.434A19.1,19.1,0,0,0,38.566,24.005,10.992,10.992,0,0,1,34,45Z"/><path d="M56.121,46.707a3,3,0,0,0-4.109-.109L48.4,42.989a16.952,16.952,0,0,0-9.561-25.277,18.99,18.99,0,1,0-21.13,21.13A16.952,16.952,0,0,0,42.989,48.4L46.6,52.012a3,3,0,0,0,.109,4.109l4.929,4.929a6.657,6.657,0,1,0,9.414-9.414ZM3,20a16.995,16.995,0,0,1,33.766-2.754,16.356,16.356,0,0,0-8.292.694l2.233-2.233A1,1,0,0,0,31,15V12H29v2.586l-1.506,1.506A3.993,3.993,0,0,0,25,14.142V13a4.971,4.971,0,0,0-1.787-3.8l.08-.08A3.8,3.8,0,0,1,26,8V6a5.787,5.787,0,0,0-4.121,1.707l-.508.508a4.479,4.479,0,0,0-2.742,0l-.508-.508A5.787,5.787,0,0,0,14,6V8a3.8,3.8,0,0,1,2.707,1.121l.08.08A4.971,4.971,0,0,0,15,13v1.142a3.993,3.993,0,0,0-2.494,1.95L11,14.586V12H9v3a1,1,0,0,0,.293.707L12,18.414V24.5L8.4,27.2A1,1,0,0,0,8,28v3h2V28.5L12,27h0a5.006,5.006,0,0,0,5,5h.128A17.138,17.138,0,0,0,17,34a16.933,16.933,0,0,0,.246,2.766A17.1,17.1,0,0,1,3,20ZM17.5,30H17a3,3,0,0,1-3-3V18a2,2,0,0,1,2-2h3V26.017A16.887,16.887,0,0,0,17.5,30ZM20,10a3,3,0,0,1,3,3v1H17V13A3,3,0,0,1,20,10Zm1,6h3a2,2,0,0,1,2,2v1.008a17.115,17.115,0,0,0-5,4.06ZM19,34A15,15,0,1,1,34,49,15.017,15.017,0,0,1,19,34ZM47.233,44.647,50.586,48,48,50.586l-3.353-3.353A17.089,17.089,0,0,0,47.233,44.647ZM56.343,61a4.625,4.625,0,0,1-3.293-1.364l-4.929-4.929a1,1,0,0,1,0-1.414l5.172-5.172a1,1,0,0,1,1.414,0l4.929,4.929A4.657,4.657,0,0,1,56.343,61Z"/><path d="M53,21A10,10,0,1,0,43,11,10.011,10.011,0,0,0,53,21ZM53,3a8,8,0,1,1-8,8A8.009,8.009,0,0,1,53,3Z"/><path d="M51,17a1,1,0,0,0,.707-.293l7-7a1,1,0,0,0,0-1.414l-2-2a1,1,0,0,0-1.414,0L51,10.586,49.707,9.293a1,1,0,0,0-1.414,0l-2,2a1,1,0,0,0,0,1.414l4,4A1,1,0,0,0,51,17Zm-2-5.586,1.293,1.293a1,1,0,0,0,1.414,0L56,8.414,56.586,9,51,14.586,48.414,12Z"/></svg>
