<svg id="Capa_1" enable-background="new 0 0 511.943 511.943" height="512" viewBox="0 0 511.943 511.943" width="512" xmlns="http://www.w3.org/2000/svg"><g><path d="m206.898 469.908-14.74 14.74c-16.404 16.403-43.103 16.403-59.514 0l-105.348-105.349c-16.404-16.413-16.405-43.111-.001-59.515l292.49-292.49c16.405-16.404 43.103-16.403 59.514 0l3.64 3.64c2.93 2.929 7.677 2.929 10.607 0 2.929-2.929 2.928-7.678 0-10.606l-3.642-3.641c-22.261-22.25-58.474-22.249-80.725.001l-292.49 292.49c-22.25 22.251-22.251 58.464 0 80.726l105.351 105.352c11.13 11.125 25.748 16.687 40.365 16.687 14.618 0 29.234-5.563 40.36-16.688l14.74-14.74c2.929-2.929 2.929-7.678 0-10.606-2.929-2.93-7.678-2.93-10.607-.001z"/><path d="m495.255 122.038-80.52-80.52c-2.929-2.929-7.678-2.929-10.606 0-2.929 2.929-2.929 7.677 0 10.606l80.519 80.519c16.404 16.413 16.405 43.111.001 59.515l-256.81 256.81c-2.929 2.929-2.929 7.677 0 10.606 1.464 1.465 3.384 2.197 5.303 2.197s3.839-.732 5.303-2.197l256.81-256.81c22.25-22.25 22.251-58.463 0-80.726z"/><path d="m166.839 443.096c1.919 0 3.839-.732 5.303-2.197l268.757-268.757c2.929-2.929 2.929-7.678 0-10.606-2.929-2.929-7.678-2.929-10.606 0l-268.757 268.757c-2.929 2.929-2.929 7.677 0 10.606 1.464 1.465 3.384 2.197 5.303 2.197z"/><path d="m232.461 417.704c1.919 0 3.839-.732 5.303-2.197l177.744-177.744c2.929-2.929 2.929-7.677 0-10.606s-7.678-2.929-10.606 0l-177.744 177.744c-2.929 2.929-2.929 7.677 0 10.606 1.464 1.465 3.383 2.197 5.303 2.197z"/><path d="m71.044 350.407c1.464 1.465 3.384 2.197 5.303 2.197s3.839-.732 5.303-2.197l268.757-268.757c2.929-2.929 2.929-7.677 0-10.606s-7.678-2.929-10.606 0l-268.757 268.757c-2.929 2.929-2.929 7.678 0 10.606z"/><path d="m107.042 284.786 177.744-177.744c2.929-2.929 2.929-7.677 0-10.606s-7.678-2.929-10.606 0l-177.745 177.743c-2.929 2.929-2.929 7.677 0 10.606 1.464 1.465 3.384 2.197 5.303 2.197s3.84-.732 5.304-2.196z"/><path d="m357.337 442.942c-3.916-11.423-16.118-17.921-27.785-14.797l-2.24.601c-11.664 3.125-18.984 14.856-16.664 26.707l4.834 24.697c1.224 6.249 5.023 11.765 10.425 15.136 3.687 2.3 7.944 3.491 12.231 3.491 1.994 0 3.994-.257 5.946-.781l5.567-1.492c6.15-1.648 11.394-5.816 14.387-11.436s3.525-12.297 1.46-18.32zm-6.538 35.075c-1.062 1.993-2.848 3.413-5.03 3.998l-5.567 1.492c-2.183.585-4.438.248-6.354-.948-1.917-1.196-3.21-3.075-3.645-5.292l-4.834-24.697c-.811-4.143 1.748-8.244 5.825-9.336h.001l2.24-.601c.691-.185 1.387-.273 2.073-.273 3.366 0 6.502 2.129 7.64 5.446l8.162 23.805c.732 2.138.551 4.412-.511 6.406z"/><path d="m443.09 406.475-18.971-16.535c-9.102-7.935-22.921-7.46-31.461 1.078l-1.64 1.64c-8.539 8.539-9.012 22.358-1.078 31.46l16.535 18.971c4.184 4.8 10.233 7.678 16.596 7.896.261.009.521.013.78.013 6.09 0 11.999-2.437 16.316-6.754l4.077-4.076c4.502-4.502 6.959-10.734 6.741-17.097-.218-6.364-3.095-12.412-7.895-16.596zm-9.452 23.086-4.077 4.076c-1.597 1.597-3.727 2.429-5.976 2.356-2.257-.077-4.318-1.058-5.802-2.76l-16.535-18.971c-2.774-3.182-2.608-8.013.376-10.998l1.64-1.64c1.563-1.563 3.631-2.353 5.705-2.353 1.887 0 3.778.654 5.294 1.976l18.971 16.535c1.702 1.484 2.682 3.544 2.76 5.801.077 2.259-.76 4.381-2.356 5.978z"/><path d="m480.149 315.483-24.697-4.834c-11.852-2.32-23.582 5-26.707 16.663l-.601 2.241v.001c-3.125 11.664 3.375 23.868 14.797 27.784l23.806 8.162c2.42.83 4.945 1.24 7.465 1.24 3.752 0 7.493-.91 10.854-2.7 5.62-2.993 9.788-8.236 11.436-14.386l1.493-5.568c1.647-6.15.66-12.775-2.71-18.177-3.371-5.403-8.887-9.203-15.136-10.426zm3.358 24.719-1.493 5.568c-.584 2.182-2.004 3.968-3.998 5.029-1.994 1.062-4.268 1.243-6.404.51l-23.806-8.162c-3.993-1.369-6.265-5.635-5.172-9.713l.601-2.241c1.092-4.078 5.195-6.637 9.336-5.825l24.697 4.834c2.217.434 4.096 1.728 5.292 3.644 1.194 1.918 1.531 4.175.947 6.356z"/><path d="m154.606 69.001c3.253 9.489 12.224 15.579 21.855 15.579 1.963 0 3.955-.253 5.93-.782l2.24-.601c11.664-3.125 18.984-14.856 16.664-26.707l-4.834-24.697c-1.224-6.249-5.023-11.765-10.425-15.136-5.402-3.37-12.029-4.359-18.177-2.71l-5.567 1.492c-6.15 1.648-11.394 5.816-14.387 11.436s-3.525 12.297-1.46 18.32zm6.538-35.075c1.062-1.993 2.848-3.413 5.03-3.998l5.567-1.492c.7-.188 1.408-.28 2.109-.28 1.485 0 2.944.416 4.245 1.228 1.917 1.196 3.21 3.075 3.645 5.292l4.834 24.697c.811 4.143-1.748 8.244-5.825 9.336 0 0 0 0-.001 0l-2.24.601c-4.08 1.092-8.344-1.18-9.713-5.173l-8.162-23.805c-.732-2.138-.551-4.412.511-6.406z"/><path d="m68.853 105.468 18.971 16.535c4.337 3.781 9.745 5.652 15.142 5.652 5.93 0 11.849-2.26 16.319-6.73l1.64-1.64c8.539-8.539 9.012-22.358 1.078-31.46l-16.535-18.971c-4.184-4.8-10.233-7.678-16.596-7.896-6.38-.214-12.595 2.24-17.096 6.741l-4.077 4.076c-4.502 4.502-6.959 10.734-6.741 17.097.218 6.364 3.096 12.412 7.895 16.596zm9.453-23.086 4.077-4.076c1.529-1.529 3.54-2.361 5.689-2.361.095 0 .191.002.287.005 2.257.077 4.318 1.058 5.802 2.76l16.535 18.971c2.774 3.182 2.608 8.013-.376 10.998l-1.64 1.64c-2.985 2.985-7.816 3.15-10.999.377l-18.972-16.536c-1.702-1.484-2.682-3.544-2.76-5.801-.077-2.258.76-4.38 2.357-5.977z"/><path d="m31.794 196.46 24.697 4.834c1.477.289 2.951.428 4.408.428 10.232 0 19.563-6.882 22.298-17.092l.601-2.241s0 0 0-.001c3.125-11.664-3.375-23.868-14.797-27.784l-23.806-8.162c-6.022-2.064-12.7-1.532-18.319 1.46-5.62 2.993-9.788 8.236-11.436 14.386l-1.493 5.568c-1.647 6.15-.66 12.775 2.71 18.177 3.372 5.404 8.888 9.204 15.137 10.427zm-3.358-24.719 1.493-5.568c.584-2.182 2.004-3.968 3.998-5.029 1.188-.633 2.477-.953 3.776-.953.88 0 1.765.147 2.628.443l23.806 8.162c3.993 1.369 6.265 5.635 5.172 9.713l-.601 2.241c-1.092 4.078-5.194 6.636-9.336 5.825l-24.697-4.834c-2.217-.434-4.096-1.728-5.292-3.644-1.194-1.918-1.531-4.175-.947-6.356z"/><path d="m142.194 410.34c3.773 1.706 8.217.03 9.923-3.745 1.707-3.774.03-8.217-3.745-9.924l-53.367-24.123c-.067-.03-.134-.06-.202-.088-3.294-1.374-7.05-.629-9.572 1.897s-3.258 6.285-1.878 9.576c.023.056.048.112.073.168l23.987 53.499c1.248 2.783 3.983 4.434 6.848 4.434 1.025 0 2.068-.212 3.064-.658 3.78-1.695 5.47-6.132 3.775-9.912l-3.859-8.607 16.387-16.387zm-31.519-2.131-6.814-15.197 15.159 6.852z"/><path d="m359.533 121.628c2.929-2.929 2.929-7.678 0-10.607s-7.678-2.928-10.606 0l-16.407 16.407c-1.407 1.406-2.197 3.314-2.197 5.303s.79 3.897 2.197 5.303l38.938 38.938c1.464 1.465 3.384 2.197 5.303 2.197s3.839-.732 5.303-2.197l16.407-16.407c2.929-2.929 2.929-7.678 0-10.607s-7.678-2.929-10.606 0l-11.104 11.104-8.862-8.862 9.894-9.894c2.929-2.929 2.929-7.678 0-10.607-2.928-2.929-7.677-2.929-10.606 0l-9.894 9.894-8.863-8.863z"/><path d="m366.712 94.038c-1.408 1.408-2.199 3.319-2.197 5.31s.796 3.901 2.207 5.306c0 0 38.221 38.066 38.221 38.066 1.405 1.395 3.305 2.177 5.284 2.177h.028c1.989-.007 3.894-.805 5.295-2.217.325-.328 8-8.062 11.027-11.197 11.554-11.965 9.875-30.713-3.991-44.58-6.56-6.56-14.029-10.605-21.599-11.699-8.702-1.258-17.039 1.595-23.475 8.032zm21.407-.194c3.141-3.141 6.649-4.379 10.723-3.792 4.28.618 8.945 3.268 13.138 7.46 9.331 9.331 8.636 18.553 3.808 23.554-1.289 1.334-3.507 3.59-5.606 5.716-4.487-4.459-22.884-22.8-27.55-27.45z"/><path d="m344.439 211.324c2.294 0 4.555-.9 6.237-2.605 2.615-2.651 3.267-6.676 1.598-10.063l-25.792-51.454c-1.856-3.703-6.362-5.2-10.065-3.344s-5.2 6.363-3.344 10.066l17.548 35.007-35.586-17.247c-3.726-1.806-8.213-.25-10.02 3.478-1.807 3.727-.25 8.214 3.478 10.02l52.19 25.294c1.199.57 2.482.848 3.756.848z"/><path d="m263.807 292.489c3.924 0 7.224-3.052 7.478-7.023.264-4.134-2.874-7.698-7.008-7.962l-20.498-1.307c4.255-8.424 3.049-18.787-3.759-25.595-8.555-8.555-22.736-8.296-31.611.578l-10.442 10.442c-1.41 1.41-2.2 3.322-2.197 5.316.003 1.993.8 3.904 2.214 5.308.001.001 39.267 39.292 39.267 39.292 1.464 1.465 3.384 2.197 5.303 2.197s3.839-.732 5.303-2.197c2.929-2.929 2.929-7.677 0-10.606l-10.087-10.087 25.553 1.629c.162.01.323.015.484.015zm-44.792-30.703c2.975-2.974 7.736-3.239 10.397-.578s2.396 7.423-.578 10.397c-1.2 1.2-3.175 3.19-5.08 5.113-1.869-1.851-7.905-7.862-9.863-9.809z"/><path d="m163.073 393.215c1.919 0 3.839-.732 5.303-2.197 2.929-2.929 2.929-7.677 0-10.606l-11.794-11.794c2.082-2.103 4.299-4.339 5.619-5.658 4.366-4.365 6.815-10.19 6.898-16.402.084-6.313-2.289-12.209-6.681-16.601-9.038-9.039-23.843-8.942-33.003.217l-10.941 10.942c-1.41 1.409-2.2 3.322-2.197 5.315s.8 3.903 2.214 5.308l39.28 39.28c1.463 1.464 3.383 2.196 5.302 2.196zm-23.052-52.435c3.253-3.254 8.653-3.354 11.79-.217 1.506 1.506 2.318 3.564 2.289 5.795-.03 2.28-.92 4.409-2.506 5.995-1.31 1.31-3.5 3.519-5.571 5.611-2.168-2.147-9.356-9.305-11.624-11.561z"/><path d="m202.599 289.775c-9.04-9.04-23.845-8.942-33.003.217l-10.942 10.942c-1.41 1.409-2.2 3.322-2.197 5.315s.8 3.903 2.214 5.308l39.28 39.28c1.464 1.465 3.384 2.197 5.303 2.197s3.839-.732 5.303-2.197c2.929-2.929 2.929-7.677 0-10.606l-11.794-11.794c2.082-2.103 4.299-4.339 5.619-5.659 9.158-9.159 9.256-23.964.217-33.003zm-22.397 10.824c3.253-3.254 8.652-3.354 11.79-.218 3.136 3.136 3.037 8.535-.218 11.79-1.31 1.311-3.5 3.519-5.571 5.611-2.168-2.147-9.356-9.305-11.624-11.56z"/><path d="m303.974 255.421c6.665-6.665 10.335-15.526 10.335-24.952s-3.67-18.287-10.335-24.951c-13.759-13.759-36.146-13.758-49.903 0-6.665 6.665-10.335 15.526-10.335 24.952s3.67 18.287 10.335 24.952c6.879 6.879 15.916 10.319 24.952 10.319s18.072-3.44 24.951-10.32zm-45.239-24.951c0-5.419 2.11-10.513 5.942-14.345 3.955-3.955 9.15-5.932 14.345-5.932s10.39 1.978 14.345 5.932c3.832 3.832 5.942 8.926 5.942 14.345s-2.11 10.513-5.942 14.345c-7.91 7.91-20.78 7.91-28.69 0-3.832-3.832-5.942-8.926-5.942-14.345z"/></g></svg>